<mxfile host="app.diagrams.net" modified="2023-05-13T09:00:01.327Z" agent="Mozilla/5.0 (X11; Linux x86_64) AppleWebKit/537.36 (KHTML, like Gecko) Chrome/112.0.0.0 Safari/537.36" etag="V28kXchwCo3ESs6SPzSl" version="21.3.0" type="github">
  <diagram name="process" id="EAfhl3Z3kIxSy44NjXsU">
    <mxGraphModel dx="2200" dy="1235" grid="1" gridSize="10" guides="1" tooltips="1" connect="1" arrows="1" fold="1" page="1" pageScale="1" pageWidth="827" pageHeight="1169" math="0" shadow="0">
      <root>
        <mxCell id="0" />
        <mxCell id="1" parent="0" />
      </root>
    </mxGraphModel>
  </diagram>
</mxfile>
